<svg width="22" height="16" viewBox="0 0 22 16" fill="none" xmlns="http://www.w3.org/2000/svg">
<path d="M11.875 5.60547C11.875 6.23698 11.7806 6.79688 11.5918 7.28516C11.403 7.77344 11.1426 8.19987 10.8105 8.56445C10.485 8.92904 10.1009 9.23828 9.6582 9.49219C9.21549 9.74609 8.74023 9.95443 8.23242 10.1172C7.73112 10.2734 7.21029 10.3906 6.66992 10.4688C6.12956 10.5404 5.59896 10.5794 5.07812 10.5859V15.1367H0.527344C0.527344 13.6458 0.530599 12.1615 0.537109 10.6836C0.54362 9.20573 0.553385 7.71484 0.566406 6.21094C0.579427 5.41667 0.582682 4.6224 0.576172 3.82812C0.569661 3.03385 0.585938 2.23307 0.625 1.42578C1.45833 1.17839 2.29167 0.992839 3.125 0.869141C3.95833 0.745443 4.81771 0.683594 5.70312 0.683594C6.20443 0.683594 6.70573 0.725911 7.20703 0.810547C7.70833 0.888672 8.18685 1.01562 8.64258 1.19141C9.10482 1.36719 9.53125 1.58854 9.92188 1.85547C10.319 2.11589 10.6608 2.42839 10.9473 2.79297C11.2337 3.15755 11.4583 3.57422 11.6211 4.04297C11.7904 4.50521 11.875 5.02604 11.875 5.60547ZM7.53906 5.9375C7.53906 5.51432 7.40885 5.18555 7.14844 4.95117C6.89453 4.71029 6.5625 4.58984 6.15234 4.58984C6.01562 4.58984 5.8724 4.60286 5.72266 4.62891C5.57943 4.64844 5.44271 4.67448 5.3125 4.70703L5.19531 7.55859C5.28646 7.57161 5.37435 7.57812 5.45898 7.57812C5.54362 7.57812 5.63151 7.57812 5.72266 7.57812C5.95703 7.57812 6.18164 7.53906 6.39648 7.46094C6.61784 7.38281 6.81315 7.27214 6.98242 7.12891C7.15169 6.97917 7.28516 6.80664 7.38281 6.61133C7.48698 6.40951 7.53906 6.1849 7.53906 5.9375ZM21.6602 0.917969C21.6211 1.52995 21.5853 2.13542 21.5527 2.73438C21.5202 3.33333 21.4779 3.9388 21.4258 4.55078L17.2852 4.76562V5.99609H20.8789L20.6836 9.02344L17.2656 9.12109L17.2852 14.9023L12.3438 15L12.6562 0.917969H21.6602Z" fill="white"/>
</svg>
