<svg width="3514" height="1834" viewBox="0 0 3514 1834" fill="none" xmlns="http://www.w3.org/2000/svg">
<rect width="3514" height="1834" fill="white"/>
<g opacity="0.504511">
<path fill-rule="evenodd" clip-rule="evenodd" d="M2276.11 1250.22C2289.16 1347.87 1972.64 1411.56 1700.19 1367.11C1427.75 1322.66 1302.76 1149.08 1432.77 1056.58C1562.78 964.09 2263.06 1152.57 2276.11 1250.22Z" fill="#F2F2F2"/>
</g>
<path fill-rule="evenodd" clip-rule="evenodd" d="M1884.55 843.301C1889.48 839.535 1897.12 841.935 1902.07 844.158C1903.99 845.015 1908.87 847.757 1912.49 850.842C1912.01 848.704 1911.58 846.546 1911.21 844.371C1909.68 835.428 1908.62 826.316 1908.12 817.256C1907.98 814.893 1908.16 812.253 1908.33 809.579L1908.33 809.578L1908.33 809.576C1908.39 808.67 1908.45 807.761 1908.5 806.857C1908.3 806.643 1908.16 806.348 1908.11 805.948C1908.09 806.114 1908.08 806.247 1908.07 806.349C1908.05 806.513 1908.04 806.596 1908.02 806.603C1907.99 806.609 1907.95 806.539 1907.85 806.399C1907.82 806.345 1907.78 806.28 1907.73 806.205C1904.06 800.722 1900.98 794.543 1900.56 787.751C1900.2 781.991 1904.93 771.092 1911.64 778.637C1914.64 782.007 1913.86 805.671 1909.35 807.121C1910.56 814.963 1912.07 822.791 1913.97 830.52C1914.25 830.469 1914.54 830.465 1914.83 830.504C1914.8 828.583 1914.8 826.486 1914.87 825.765C1915.55 819.554 1920.73 806.945 1928.99 809.393C1935.33 811.274 1931.44 819.019 1929.28 822.409C1925.81 827.867 1921.88 830.23 1916.9 833.068C1916.8 834.241 1916.05 834.923 1915.15 835.144C1918.49 847.626 1922.87 859.799 1928.6 871.298L1928.75 870.566C1929.48 867.076 1930.32 863.007 1930.86 862.153C1933.67 857.68 1939.89 852.216 1945.62 854.863C1957.66 860.429 1944.59 876.428 1934.34 878.168C1933.91 878.758 1933.46 879.232 1932.98 879.504C1934.98 882.975 1937.1 886.373 1939.38 889.685C1942.8 894.665 1946.47 899.63 1950.32 904.565C1950.44 900.704 1951.96 892.1 1952.39 891.175C1955.02 885.561 1962.6 879.784 1968.75 883.773C1975.66 888.27 1969.39 896.767 1965.45 900.613C1963.83 902.19 1955.84 907.968 1953.02 907.994C1962.32 919.632 1972.58 931.072 1983.02 942.098C1982.15 937.162 1981.02 923.568 1981.15 922.06C1981.8 914.273 1986.91 901.817 1996.98 904.852C2006.76 907.792 2002.43 920.731 1999.09 926.899C1997.06 930.632 1994.26 934.425 1990.88 937.029C1990.27 937.498 1989.48 937.881 1988.68 938.263C1987.73 938.724 1986.77 939.184 1986.15 939.793C1985.59 940.336 1985.42 940.959 1985.25 941.577C1985.07 942.23 1984.89 942.877 1984.26 943.417C1989.9 949.35 1995.58 955.159 2001.18 960.806C2003.82 963.472 2006.51 966.086 2009.23 968.668C2010.71 968.051 2012.83 968.862 2012.72 970.968C2012.71 971.274 2012.64 971.538 2012.54 971.78C2014.6 973.696 2016.67 975.599 2018.76 977.481C2018.71 976.933 2018.72 976.16 2018.82 975.092C2017.32 977.232 2017.38 974.115 2017.43 971.739L2017.43 971.738C2017.44 970.899 2017.46 970.152 2017.4 969.762C2017.18 968.236 2016.9 966.724 2016.61 965.215L2016.61 965.214C2016 961.989 2015.39 958.775 2015.42 955.447C2015.49 948.383 2019.96 936.541 2029.36 940.748C2038.01 944.609 2034.87 955.078 2031.6 961.642C2029.54 965.796 2026.71 969.505 2023.76 973.055C2023.23 973.689 2022.65 974.547 2022.07 975.397C2021.21 976.659 2020.36 977.901 2019.74 978.364C2027.77 985.569 2035.99 992.562 2044.2 999.556L2044.21 999.557L2044.21 999.56C2047.89 1002.69 2051.57 1005.82 2055.23 1008.97C2055.39 1008.28 2055.53 1007.6 2055.64 1006.96C2055.41 1007.21 2055.1 1007.34 2054.7 1007.31C2054.59 1006.78 2054.44 1006.08 2054.25 1005.23L2054.25 1005.23C2051.99 994.899 2045.09 963.431 2063.76 969.53C2077.44 974.012 2067.78 1001.41 2057.58 1011C2063.77 1016.35 2069.9 1021.77 2075.89 1027.35C2080.22 1031.39 2084.43 1035.57 2088.47 1039.88C2086.38 1034.29 2084.41 1027.06 2085.7 1021.3C2087.59 1012.92 2096.42 1005.01 2105.04 1009.78C2115.79 1015.75 2107.52 1023.9 2099.77 1031.54C2095.81 1035.45 2091.98 1039.22 2090.89 1042.5C2103.75 1056.66 2114.73 1072.39 2122.06 1090.31C2130.04 1109.79 2137.44 1135.98 2133.35 1157.78C2134.1 1148.19 2130.87 1136.16 2128.6 1127.7C2128.29 1126.55 2128 1125.47 2127.74 1124.46C2124.32 1111.35 2119.48 1098.6 2113.09 1086.66C2102.85 1067.54 2089.33 1051.31 2073.73 1036.57C2070.17 1037.81 2066.31 1040.1 2063.12 1042.01C2061.16 1043.17 2059.45 1044.19 2058.21 1044.72C2052.24 1047.3 2040.77 1051 2036.97 1042.88C2033.23 1034.89 2042.77 1030.42 2048.69 1028.63C2054.41 1026.9 2059.56 1027.11 2064.9 1028.52C2056.64 1021.19 2048.18 1014.09 2039.71 1006.99C2038.16 1005.68 2036.6 1004.37 2035.05 1003.07C2032.9 1004.83 2030.52 1007.39 2028 1010.1C2019.99 1018.7 2010.51 1028.89 2002.04 1020.56C1989.26 1008 2013.71 995.227 2024.12 996.224C2025.4 996.345 2026.64 996.615 2027.84 996.983C2017.22 987.954 2006.77 978.739 1996.88 968.876C1995.1 969.2 1992.28 971.816 1988.88 974.957C1981.26 982.018 1970.76 991.737 1962.85 984.084C1957.14 978.56 1959.09 969.955 1964.61 965.036C1970.15 960.095 1978.18 960.103 1985.01 961.767C1987.96 962.483 1990.68 963.849 1993.22 965.514C1993.33 965.52 1993.43 965.526 1993.54 965.532C1983.81 955.724 1974.02 945.696 1964.59 935.326C1964.42 935.379 1964.25 935.433 1964.08 935.489C1963.51 936.188 1962.56 936.444 1961.69 936.289C1961.2 936.455 1960.71 936.625 1960.21 936.799C1952.74 939.38 1943.14 942.699 1935.7 941.268C1930.22 940.214 1925.25 935.753 1929.88 930.261C1933.65 925.795 1943.88 926.436 1948.87 927.494C1951.31 928.011 1953.96 929.509 1956.62 931.012C1957.73 931.643 1958.85 932.275 1959.96 932.836C1960.24 932.256 1960.75 931.884 1961.32 931.705C1952 921.284 1943.12 910.503 1935.06 899.253C1932.62 899.631 1929.92 900.704 1927.13 901.811C1920.41 904.474 1913.21 907.333 1908.03 901.177C1900.4 892.087 1914.76 886.781 1921.58 887.645C1923.89 887.936 1926.16 888.59 1928.35 889.454C1922.49 880.192 1918.01 870.292 1914.87 859.895C1914.79 859.934 1914.72 859.976 1914.64 860.015C1914.68 859.99 1914.72 859.963 1914.77 859.936C1914.8 859.916 1914.83 859.897 1914.86 859.877C1914.55 858.837 1914.25 857.792 1913.96 856.744C1913.42 856.446 1912.93 856.228 1912.69 856.137C1915.79 858.279 1902.71 859.327 1900.26 859.523C1894.84 859.956 1887.58 860.118 1883.61 855.673C1880.27 851.94 1880.47 846.425 1884.55 843.301ZM2133.93 1157.81C2133.7 1160.97 2133.13 1163.86 2132.06 1166.25C2132.86 1163.53 2133.47 1160.71 2133.93 1157.81Z" fill="#F2F2F2"/>
<path opacity="0.2" fill-rule="evenodd" clip-rule="evenodd" d="M1638.61 641.545C1635.01 638.824 1629.43 640.562 1625.81 642.171C1624.42 642.792 1620.85 644.776 1618.21 647.008C1618.56 645.462 1618.87 643.901 1619.14 642.329C1620.26 635.861 1621.04 629.272 1621.41 622.721C1621.51 621.012 1621.38 619.103 1621.26 617.169C1621.21 616.513 1621.17 615.855 1621.14 615.201C1621.28 615.047 1621.38 614.833 1621.42 614.544C1621.43 614.664 1621.44 614.76 1621.45 614.833C1621.46 614.953 1621.47 615.012 1621.49 615.017C1621.5 615.022 1621.54 614.971 1621.6 614.87C1621.63 614.831 1621.66 614.784 1621.7 614.729C1624.38 610.763 1626.63 606.294 1626.94 601.383C1627.2 597.218 1623.75 589.339 1618.85 594.797C1616.66 597.234 1617.22 614.346 1620.51 615.393C1619.63 621.063 1618.52 626.724 1617.13 632.314C1616.93 632.277 1616.71 632.274 1616.51 632.303C1616.53 630.913 1616.53 629.397 1616.47 628.876C1615.98 624.385 1612.2 615.269 1606.17 617.042C1601.54 618.405 1604.38 624.004 1605.95 626.455C1608.49 630.4 1611.36 632.107 1614.99 634.157C1615.06 635.006 1615.61 635.498 1616.26 635.658C1613.83 644.685 1610.62 653.489 1606.44 661.806L1606.33 661.278C1605.8 658.754 1605.18 655.812 1604.79 655.194C1602.74 651.96 1598.2 648.012 1594.01 649.928C1585.22 653.957 1594.75 665.521 1602.24 666.776C1602.55 667.202 1602.88 667.544 1603.23 667.741C1601.77 670.251 1600.22 672.71 1598.55 675.105C1596.06 678.708 1593.38 682.299 1590.56 685.869C1590.48 683.078 1589.37 676.856 1589.05 676.188C1587.14 672.129 1581.61 667.955 1577.12 670.841C1572.07 674.095 1576.64 680.237 1579.52 683.017C1580.7 684.156 1586.53 688.331 1588.59 688.349C1581.8 696.769 1574.3 705.044 1566.68 713.021C1567.31 709.451 1568.14 699.622 1568.05 698.531C1567.58 692.9 1563.85 683.896 1556.49 686.094C1549.35 688.223 1552.51 697.578 1554.95 702.037C1556.42 704.735 1558.47 707.477 1560.93 709.358C1561.38 709.697 1561.96 709.974 1562.54 710.25C1563.24 710.583 1563.94 710.916 1564.39 711.356C1564.8 711.748 1564.92 712.198 1565.05 712.645C1565.18 713.117 1565.31 713.585 1565.76 713.975C1561.64 718.267 1557.5 722.47 1553.41 726.556C1551.48 728.484 1549.51 730.376 1547.53 732.243C1546.44 731.798 1544.9 732.385 1544.98 733.908C1544.99 734.129 1545.04 734.32 1545.11 734.495C1543.61 735.881 1542.09 737.258 1540.57 738.62C1540.6 738.224 1540.59 737.664 1540.52 736.892C1541.62 738.439 1541.57 736.185 1541.54 734.467L1541.54 734.467C1541.53 733.86 1541.52 733.32 1541.56 733.038C1541.72 731.934 1541.93 730.841 1542.14 729.749L1542.14 729.749L1542.14 729.749C1542.59 727.416 1543.03 725.092 1543.01 722.686C1542.96 717.578 1539.7 709.017 1532.84 712.062C1526.52 714.857 1528.81 722.426 1531.19 727.171C1532.7 730.174 1534.76 732.855 1536.92 735.421C1537.3 735.88 1537.73 736.5 1538.15 737.114L1538.15 737.114C1538.78 738.026 1539.39 738.924 1539.85 739.259C1533.99 744.472 1527.98 749.532 1521.98 754.592L1521.98 754.594C1519.29 756.86 1516.6 759.126 1513.92 761.406C1513.81 760.906 1513.71 760.41 1513.63 759.946C1513.79 760.133 1514.02 760.221 1514.31 760.204C1514.39 759.82 1514.51 759.311 1514.64 758.699C1516.3 751.227 1521.34 728.47 1507.71 732.887C1497.72 736.133 1504.76 755.942 1512.21 762.869C1507.68 766.741 1503.21 770.662 1498.83 774.701C1495.67 777.623 1492.6 780.645 1489.64 783.767C1491.17 779.725 1492.61 774.493 1491.67 770.329C1490.3 764.271 1483.85 758.553 1477.56 762.004C1469.71 766.325 1475.74 772.217 1481.4 777.743C1484.29 780.564 1487.08 783.29 1487.88 785.662C1478.48 795.905 1470.46 807.283 1465.1 820.243C1459.27 834.336 1453.85 853.271 1456.83 869.034C1456.29 862.102 1458.65 853.398 1460.31 847.285C1460.54 846.453 1460.75 845.668 1460.94 844.943C1463.44 835.462 1466.98 826.237 1471.65 817.601C1479.13 803.77 1489.01 792.028 1500.41 781.366C1503 782.261 1505.82 783.92 1508.15 785.293C1509.58 786.136 1510.83 786.871 1511.74 787.258C1516.1 789.121 1524.47 791.79 1527.25 785.913C1529.98 780.134 1523.01 776.906 1518.69 775.614C1514.52 774.366 1510.75 774.519 1506.86 775.545C1512.89 770.239 1519.07 765.1 1525.25 759.963L1525.26 759.959C1526.39 759.016 1527.53 758.072 1528.66 757.127C1530.23 758.403 1531.97 760.248 1533.81 762.207C1539.65 768.424 1546.57 775.789 1552.76 769.765C1562.09 760.675 1544.25 751.45 1536.64 752.175C1535.71 752.263 1534.81 752.458 1533.93 752.725C1541.68 746.192 1549.32 739.525 1556.55 732.39C1557.84 732.623 1559.9 734.513 1562.38 736.784C1567.95 741.886 1575.61 748.91 1581.39 743.374C1585.56 739.377 1584.13 733.156 1580.11 729.6C1576.06 726.03 1570.2 726.039 1565.21 727.245C1563.06 727.763 1561.07 728.752 1559.21 729.957C1559.17 729.96 1559.12 729.962 1559.08 729.965L1558.98 729.97C1566.09 722.874 1573.25 715.619 1580.13 708.117C1580.25 708.156 1580.38 708.195 1580.5 708.235C1580.92 708.741 1581.61 708.925 1582.25 708.813C1582.6 708.932 1582.96 709.055 1583.33 709.181C1588.78 711.045 1595.79 713.441 1601.23 712.403C1605.23 711.64 1608.86 708.412 1605.48 704.442C1602.72 701.214 1595.25 701.682 1591.61 702.449C1589.83 702.823 1587.9 703.907 1585.96 704.995C1585.14 705.452 1584.32 705.909 1583.52 706.315C1583.31 705.896 1582.94 705.627 1582.52 705.498C1589.33 697.959 1595.82 690.16 1601.71 682.022C1603.49 682.295 1605.46 683.07 1607.5 683.869C1612.4 685.792 1617.66 687.857 1621.44 683.403C1627.02 676.828 1616.53 672.997 1611.55 673.623C1609.87 673.835 1608.21 674.309 1606.61 674.934C1610.89 668.235 1614.16 661.074 1616.47 653.555C1616.49 653.566 1616.51 653.577 1616.53 653.589L1616.53 653.589C1616.55 653.602 1616.58 653.615 1616.6 653.627C1616.61 653.632 1616.62 653.637 1616.63 653.642C1616.6 653.624 1616.57 653.604 1616.54 653.585C1616.52 653.571 1616.49 653.556 1616.47 653.542C1616.7 652.79 1616.92 652.034 1617.13 651.276C1617.52 651.061 1617.88 650.903 1618.06 650.837C1615.79 652.387 1625.34 653.14 1627.13 653.281C1631.09 653.592 1636.39 653.706 1639.29 650.491C1641.73 647.79 1641.59 643.802 1638.61 641.545ZM1456.24 868.412C1456.42 870.517 1456.94 872.438 1457.96 874.012C1457.21 872.213 1456.64 870.339 1456.24 868.412Z" fill="#C1DEE2"/>
<g opacity="0.7">
<path fill-rule="evenodd" clip-rule="evenodd" d="M2123.82 1162.77C2137.47 1162.06 2154.36 1170.03 2155.82 1184.87C2156.87 1195.65 2156.55 1206.41 2158.18 1217.17C2159.49 1225.78 2162.26 1234.04 2166.04 1241.87C2169.67 1249.41 2177.2 1255.83 2179.16 1263.88C2180.41 1269.01 2179.71 1276.23 2177.99 1281.25C2175.9 1287.35 2177.01 1286.86 2181.18 1291.98C2189.36 1302.02 2196.72 1312.31 2201.93 1324.29C2209.43 1341.55 2214.35 1361.72 2211.56 1380.62C2211.21 1383.02 2210.79 1391.63 2207.49 1392.23C2203.8 1392.9 2205.52 1387.98 2205.72 1386.39C2206.97 1376.24 2208.09 1367.37 2206.58 1357.06C2200.73 1317.29 2172.2 1291.09 2153.62 1257.33C2152.6 1255.59 2150.45 1251.45 2148.95 1248.71C2146.58 1244.39 2144.2 1236.18 2141 1232.98C2134.96 1226.95 2140.51 1239.07 2141.69 1241.39C2143.17 1244.31 2144.81 1247.42 2146.33 1249.99C2153.3 1261.88 2161.08 1274.86 2168.28 1287.12C2137.15 1294.21 2115.22 1256.79 2106.87 1232.18C2099.98 1211.9 2091.75 1164.5 2123.82 1162.77Z" fill="#69A1AC"/>
<path fill-rule="evenodd" clip-rule="evenodd" d="M2306.81 1125.12C2283.98 1126.93 2269.33 1141.99 2262.51 1163.06C2258.83 1174.41 2258.41 1186.07 2256.37 1197.73C2253.3 1215.28 2246.69 1228.58 2233.76 1241.09C2229.76 1244.96 2226.81 1248.94 2224.72 1253.19C2220.55 1257.44 2216.93 1262.24 2214.27 1268.12C2210.87 1275.62 2209.91 1284.63 2213.83 1292.11C2214.89 1294.12 2217.52 1298.16 2220.25 1299.99C2210.03 1321.75 2204.42 1345.58 2205.05 1369.39C2205.43 1383.75 2206.13 1398.13 2206.95 1412.48C2207.17 1416.33 2208.43 1422.69 2210.31 1416.23C2212.04 1410.32 2209.87 1401.04 2209.67 1394.87C2208.7 1364.79 2207.87 1337.44 2220.25 1309.33C2221.55 1306.39 2222.92 1303.46 2224.36 1300.56C2224.44 1300.52 2224.52 1300.46 2224.6 1300.4C2224.65 1300.44 2224.7 1300.49 2224.76 1300.53C2224.85 1300.37 2224.97 1300.17 2225.12 1299.95C2225.53 1299.53 2225.89 1298.99 2226.23 1298.39C2227.33 1296.87 2228.57 1295.08 2228.58 1294.11C2228.58 1294.1 2228.58 1294.09 2228.58 1294.08C2236.24 1281.57 2245.02 1269.74 2253.99 1258.15C2253.92 1258.23 2263.72 1244.9 2262.2 1252.27C2261.47 1255.83 2254.27 1262.6 2251.36 1266.36C2244.92 1274.74 2237.36 1285.35 2231.08 1295.61C2230.24 1296.1 2229.04 1298.48 2228.18 1300.26C2227.7 1301.16 2227.26 1302.06 2226.82 1302.85C2249.08 1310.21 2266.39 1295.4 2278.2 1278.17C2278.21 1278.15 2278.22 1278.13 2278.24 1278.11C2281.83 1273.35 2285.51 1268.62 2290.11 1264.86C2297.78 1258.58 2305.99 1257.47 2315.04 1254.38C2339.7 1245.95 2350.19 1213.99 2353.52 1190.27C2357.27 1163.51 2338.89 1122.48 2306.81 1125.12Z" fill="#89C5CC"/>
<path fill-rule="evenodd" clip-rule="evenodd" d="M2261.72 1050.19C2238.3 1074.57 2226.98 1108.38 2218.02 1140.17C2208.01 1175.68 2201.4 1211.73 2201.15 1248.64C2200.98 1272.89 2200.32 1297.3 2201.74 1321.52C2202.24 1330.13 2203.1 1338.74 2204.46 1347.26C2204.57 1347.95 2207.63 1366.96 2210.54 1362.53C2212.2 1360.01 2207.42 1342.82 2207.06 1339.95C2205.02 1323.82 2204.55 1307.57 2204.65 1291.33C2204.81 1264.58 2204.02 1237.96 2206.73 1211.31C2207.14 1207.33 2207.46 1203.15 2208.4 1199.26C2209.41 1195.12 2208.13 1196.93 2211.4 1195.29C2214.57 1193.69 2218.5 1193.92 2221.79 1191.92C2234.87 1184 2241.55 1163.64 2246.76 1150.28C2252.71 1135 2256.33 1118.71 2259.22 1102.63C2261.34 1090.82 2262.86 1079.07 2263.72 1067.11C2263.99 1063.34 2264 1059.4 2264.74 1055.69C2264.94 1054.69 2265.95 1052.92 2265.91 1052.03C2265.83 1050.16 2264.7 1049.06 2264.61 1047.48C2263.63 1048.36 2262.66 1049.27 2261.72 1050.19Z" fill="#89C5CC"/>
<path fill-rule="evenodd" clip-rule="evenodd" d="M2134 1375C2134 1415.32 2166.68 1448 2207 1448C2247.32 1448 2280 1415.32 2280 1375" fill="#89C5CC"/>
<path fill-rule="evenodd" clip-rule="evenodd" d="M2257.03 1311.08C2275.09 1309.75 2295.27 1324.33 2303.99 1339.5C2311.01 1351.73 2309.83 1367.79 2305.49 1380.78C2302.58 1389.48 2296.24 1401.88 2285.66 1402C2272.43 1402.15 2271.79 1385.8 2271.54 1376.24C2271.2 1363.53 2269.59 1352.45 2259.58 1343.79C2258.34 1342.72 2257.04 1341.72 2255.75 1340.72C2254.59 1339.83 2253.44 1338.94 2252.33 1338C2252.16 1337.86 2251.98 1337.71 2251.8 1337.56C2248.26 1334.58 2244.54 1331.45 2244.09 1326.55C2243.43 1319.44 2247.44 1318.16 2253.57 1319.48C2253.77 1319.52 2254.31 1319.72 2255.04 1320C2258.17 1321.19 2264.84 1323.72 2263.58 1320.69C2263.11 1319.55 2261.37 1318.65 2259.17 1317.97C2253.5 1317.35 2246.73 1316.64 2244.79 1317.07C2223.79 1321.67 2215.62 1350.76 2213.45 1369.23C2213.21 1371.23 2213.02 1373.23 2212.86 1375.23H2209C2209.27 1370.39 2209.62 1365.56 2210.43 1360.78C2213.52 1342.47 2223.2 1315.59 2244.42 1312.62C2245.2 1312.51 2248.08 1312.49 2251.57 1312.7C2253.22 1311.77 2255.08 1311.21 2257.03 1311.08Z" fill="#69A1AC"/>
</g>
<g opacity="0.5">
<path fill-rule="evenodd" clip-rule="evenodd" d="M1503.22 1029.44C1507.43 1023.45 1515.22 1008.23 1521.14 1006.09C1524.95 1004.71 1523.84 1018.98 1523.88 1021.7C1524.07 1032.22 1523.04 1042.68 1521.78 1053.12C1519.5 1071.94 1512.04 1088.7 1501.82 1104.72C1496.56 1112.96 1490.39 1121.3 1481.85 1126.44C1477.91 1128.81 1473.18 1129.21 1469.29 1131.25C1464.77 1133.62 1467.23 1131.7 1465.19 1136.42C1462.36 1142.96 1461.46 1151.41 1460.15 1158.39C1454.13 1190.45 1439.57 1359.94 1442.09 1392.56C1442.32 1395.45 1438.29 1396.14 1438.09 1392.61C1437.02 1373.9 1446.27 1244.32 1450.94 1201.95C1455.61 1159.57 1460.33 1122.13 1465.07 1107.47C1470.82 1089.69 1481.2 1068.3 1489.84 1051.71C1493.85 1044.01 1498.23 1036.57 1503.22 1029.44Z" fill="#69A1AC"/>
<path fill-rule="evenodd" clip-rule="evenodd" d="M1534.41 1237.28C1545.35 1229.25 1557.19 1244.4 1547.29 1252.43C1541.82 1256.87 1536.1 1255.29 1532.88 1251.59C1530.79 1254.14 1528.84 1256.8 1526.96 1259.05C1521.23 1265.91 1515.82 1272.93 1510.64 1280.11C1499.9 1295.03 1490.69 1310.8 1481.06 1326.28C1471.56 1341.55 1462.13 1356.91 1453.52 1372.57C1446.22 1385.84 1436.5 1401.45 1434 1416C1437.79 1385.15 1452.17 1355.49 1469.3 1328.29C1486.28 1301.31 1505.78 1271.85 1532.08 1250.56C1529.4 1246.63 1529.33 1241.01 1534.41 1237.28Z" fill="#C1DEE2"/>
<path fill-rule="evenodd" clip-rule="evenodd" d="M1326.91 1162.03C1333.03 1163.23 1343.03 1177.07 1348.08 1182.34C1354.07 1188.61 1359.51 1195.29 1364.63 1202.29C1375.67 1217.36 1385.54 1233.38 1393.93 1250.08C1407.62 1277.31 1418.58 1305.26 1426.53 1334.92C1431.4 1353.07 1434.56 1371.88 1436.42 1390.57C1436.78 1394.09 1440.47 1421.25 1435.15 1421.99C1430.36 1422.64 1431.84 1401.36 1431.61 1398.46C1429 1365.8 1421.18 1334.01 1410.3 1303.23C1407.93 1296.52 1405.73 1288.3 1401.94 1282.27C1399.21 1277.92 1401.92 1279.44 1397.12 1277.79C1393 1276.38 1388.31 1276.72 1384.1 1274.99C1374.94 1271.24 1367.6 1263.94 1361.17 1256.61C1348.68 1242.35 1338.77 1226.93 1333.61 1208.66C1330.75 1198.53 1328.12 1188.34 1326.66 1177.9C1326.28 1175.2 1322.97 1161.26 1326.91 1162.03Z" fill="#69A1AC"/>
<path fill-rule="evenodd" clip-rule="evenodd" d="M1351.06 931.716C1374.11 971.69 1393.05 1015.6 1405.28 1060.08C1412.69 1087.02 1417.88 1114.67 1423.02 1142.13C1431 1184.63 1438.54 1227.13 1440.68 1270.4C1442.84 1313.91 1447.11 1364.09 1432.86 1406C1439.98 1363.45 1433.2 1318.16 1432 1275.35C1431.43 1254.91 1429.77 1234.67 1427.59 1214.36C1425.47 1194.65 1422.02 1175.03 1418.8 1155.47C1417.23 1145.95 1415.59 1136.44 1413.91 1126.94C1413.41 1124.1 1413.2 1115.69 1411.4 1113.75C1409.59 1111.8 1400.35 1111 1397.45 1109.57C1391.61 1106.69 1386.12 1102.6 1381.26 1098.27C1371.94 1089.98 1363.83 1079.15 1357.44 1068.47C1342.63 1043.76 1336.71 1013.61 1337.01 984.994C1337.07 979.438 1346 919.61 1342.41 918.786C1342.63 918.533 1342.84 918.272 1343.03 918C1345.74 922.549 1348.41 927.128 1351.06 931.716Z" fill="#89C5CC"/>
<path fill-rule="evenodd" clip-rule="evenodd" d="M1599.85 1075.89C1600.2 1075.37 1602.52 1071.81 1601.35 1072.03C1603.72 1071.57 1598.09 1075.97 1604 1073.27C1601.19 1075.92 1602.81 1079.37 1602.85 1082.94C1602.91 1088.73 1601.94 1094.48 1600.85 1100.15C1599.13 1109.11 1596.56 1117.82 1592.83 1126.16C1584.7 1144.33 1570.9 1161.81 1554.52 1173.17C1546.43 1178.78 1538.5 1180.69 1529.28 1183.27C1523.45 1184.9 1522.99 1187.91 1519.9 1193.57C1513.46 1205.34 1507.14 1217.08 1501.46 1229.25C1494.68 1243.79 1488.09 1258.34 1481.89 1273.13C1460.97 1322.96 1443.95 1374.58 1435 1428C1434.79 1396.52 1442.07 1364.1 1451.26 1334.09C1457.95 1312.23 1466.66 1291.15 1475.95 1270.29C1478.2 1265.24 1481.61 1258.73 1482.57 1253.15C1483.24 1249.25 1481.19 1245.49 1480.26 1241.37C1476.6 1225.33 1476.86 1207.36 1480.07 1191.24C1483.61 1173.46 1493.84 1165.21 1511.15 1162.69C1517.47 1161.77 1525.52 1162.11 1531.32 1159.41C1537.65 1156.47 1540.25 1146.81 1543.85 1140.61C1553.51 1123.95 1564.98 1107.98 1578.16 1093.94C1581.8 1090.06 1585.73 1086.47 1589.89 1083.15C1592.51 1081.05 1598.06 1078.47 1599.85 1075.89Z" fill="#89C5CC"/>
<path fill-rule="evenodd" clip-rule="evenodd" d="M1400.84 1399.73C1400.4 1396.71 1402.74 1394 1405.79 1394H1467.21C1470.26 1394 1472.6 1396.71 1472.16 1399.73L1467.41 1431.92C1465.96 1441.73 1457.54 1449 1447.62 1449H1425.38C1415.46 1449 1407.04 1441.73 1405.59 1431.92L1400.84 1399.73Z" fill="#C1DEE2"/>
</g>
<path fill-rule="evenodd" clip-rule="evenodd" d="M1350.42 1410.46C1350.42 1431.74 1352.1 1449 1374.65 1449C1397.19 1449 1398.87 1431.74 1398.87 1410.46" fill="#F2F2F2"/>
<path fill-rule="evenodd" clip-rule="evenodd" d="M1381.35 1397.17C1380.53 1398.6 1379.79 1400.06 1379.14 1401.54C1379.12 1398.49 1379.28 1395.42 1379.74 1392.31C1380.53 1386.98 1381.73 1381.68 1382.86 1376.39C1383.67 1372.58 1383.62 1365.75 1386.7 1362.72C1387.54 1362.07 1387.75 1363.35 1387.75 1363.91C1387.76 1364.03 1387.74 1361.63 1386.93 1362.05C1382.05 1364.56 1380.48 1372.47 1378.92 1376.43C1376.64 1382.21 1374.71 1388.12 1373.91 1394.14C1373.71 1395.66 1373.6 1397.18 1373.57 1398.69C1373.41 1398.29 1373.25 1397.88 1373.08 1397.47C1370.27 1390.88 1366.47 1384.45 1361.74 1378.51C1360.58 1377.05 1345.93 1362.65 1344.79 1364.85C1344.9 1365.17 1345.14 1365.44 1345.5 1365.65C1345.52 1365.68 1345.52 1365.66 1345.51 1365.63C1346.37 1367.02 1348.81 1369.16 1349.58 1370.38C1351.49 1373.44 1352.98 1376.69 1354.5 1379.88C1357.69 1386.62 1360.66 1393.43 1363.54 1400.25C1364.21 1401.84 1364.91 1403.42 1365.62 1404.99C1358.28 1394.4 1348.48 1384.79 1335 1379.29C1339.6 1381.63 1342.62 1386.04 1345.73 1389.41C1349.48 1393.48 1353.44 1397.44 1357.19 1401.51C1361.63 1406.31 1366.84 1411.36 1371.1 1416.67C1375.23 1425.34 1379.25 1434.01 1381.72 1443.13C1380.71 1439.98 1381.64 1435.63 1381.47 1432.32C1381.33 1429.69 1381.02 1427.08 1380.6 1424.48C1381.12 1425.65 1381.57 1426.83 1381.78 1427.92C1381.59 1426.09 1381.38 1424.27 1381.15 1422.46C1381.74 1420.76 1382.32 1419.17 1382.71 1417.87C1384.71 1411.18 1387.1 1404.6 1390.35 1398.19C1393.36 1392.26 1396.81 1386.41 1400.57 1380.73C1402.32 1378.09 1404.1 1375.45 1405.87 1372.81C1407.02 1371.08 1408.12 1368.32 1409.73 1366.66C1399.33 1376.17 1387.96 1385.76 1381.35 1397.17Z" fill="#F2F2F2"/>
<path fill-rule="evenodd" clip-rule="evenodd" d="M2323.63 676.827C2320.65 666.876 2313.65 659.087 2306.37 651.951C2292.22 638.058 2284.61 629.468 2279.56 609.146C2276.59 597.193 2273.58 584.528 2264.16 575.856C2257.31 569.541 2245.52 564.236 2236.36 568.758C2222.26 577.172 2218.48 594.439 2219.9 609.9C2221.66 629.064 2230.61 640.88 2247.81 647.938C2257.5 651.913 2263.94 657.159 2269.2 666.299C2273.4 673.607 2275.86 682.759 2281.15 689.384C2289.05 699.289 2298.94 703.691 2311.13 702.046C2299.71 681.035 2286.37 659.826 2270.28 642.135C2268.77 640.357 2259.89 633.549 2261.68 630.518C2263.65 627.181 2272.77 639.718 2272.71 639.642C2277.39 645.01 2281.71 650.715 2285.96 656.475C2285.95 656.48 2285.94 656.484 2285.93 656.489C2290.3 662.4 2294.64 668.397 2298.9 674.469C2300.62 677.038 2302.3 679.639 2303.9 682.306C2306.26 686.219 2310 697.325 2313.85 699.731C2314.67 700.245 2315.44 700.533 2316.15 700.651C2318.78 704.956 2321.33 709.295 2323.77 713.685C2330.12 725.151 2335.57 737.257 2338.08 750.202C2338.81 753.981 2338.29 768.114 2340.87 770.842C2345.58 775.831 2344.2 766.223 2343.92 763.323C2341.58 739.31 2332.96 718.852 2320.44 698.664C2324.29 693.642 2324.84 680.859 2323.63 676.827Z" fill="#F2F2F2"/>
<path fill-rule="evenodd" clip-rule="evenodd" d="M2162.13 688.43C2167.1 682.573 2179.05 681.579 2186.36 681.971C2195.4 682.456 2204.69 684.658 2213.3 687.32C2227.47 691.704 2241.24 699.706 2253.73 707.451C2255.23 708.384 2273.76 719.529 2272.12 721.485C2270.5 723.423 2252.3 710.184 2248.25 707.902C2239.6 703.032 2231.66 697.272 2222.12 694.055C2212.25 690.724 2201.8 689.405 2191.42 689.496C2190.09 689.508 2185.74 688.579 2185.65 690.551C2185.55 692.479 2192.75 691.473 2194.02 691.485C2199.26 691.533 2204.53 692.026 2209.69 692.934C2219.37 694.635 2228.46 698.061 2236.75 703.317C2234.44 708.694 2228.9 711.173 2223.08 709.828C2218.06 708.664 2213.16 705.796 2208.23 704.966C2204.84 704.395 2201.45 704.735 2198.16 705.69C2189.49 708.209 2184.49 713.371 2174.96 709.781C2167.49 706.966 2154.99 696.853 2162.13 688.43Z" fill="#F2F2F2"/>
<path fill-rule="evenodd" clip-rule="evenodd" d="M2140.75 594.051C2129.71 593.246 2117.39 602.056 2112.06 611.223C2107.77 618.615 2108.49 628.321 2111.15 636.173C2112.92 641.431 2116.8 648.926 2123.26 648.999C2131.34 649.091 2131.73 639.207 2131.89 633.428C2132.09 625.746 2133.08 619.054 2139.19 613.818C2139.95 613.171 2140.74 612.566 2141.54 611.961C2142.24 611.424 2142.94 610.887 2143.62 610.322C2143.73 610.231 2143.84 610.141 2143.95 610.05C2146.11 608.251 2148.38 606.361 2148.66 603.396C2149.06 599.099 2146.61 598.325 2142.86 599.124C2142.74 599.149 2142.42 599.272 2141.97 599.44C2140.06 600.157 2135.98 601.687 2136.75 599.858C2137.04 599.169 2138.1 598.623 2139.44 598.213C2142.91 597.84 2147.04 597.408 2148.23 597.666C2161.06 600.45 2166.05 618.028 2167.38 629.196C2167.53 630.46 2167.65 631.729 2167.75 633H2170.1C2169.94 630.015 2169.73 627.036 2169.22 624.084C2167.33 613.022 2161.42 596.775 2148.45 594.979C2147.98 594.912 2146.22 594.901 2144.09 595.025C2143.08 594.467 2141.94 594.129 2140.75 594.051Z" fill="#F2F2F2"/>
<path fill-rule="evenodd" clip-rule="evenodd" d="M1480.89 527.077C1498.19 532.05 1513.99 532.46 1520.39 528.85C1536.43 519.8 1521.15 456.448 1501.17 435.212C1481.2 413.976 1409.77 421.526 1419.48 471.604C1422.86 488.985 1434.11 502.286 1448.04 511.869L1452.73 605.411L1507.94 590.617L1480.89 527.077Z" fill="#B28B67"/>
<path fill-rule="evenodd" clip-rule="evenodd" d="M1467.13 464.656C1470 456.277 1473.13 449.633 1478.26 444.89C1502.63 438.77 1504.31 433.664 1500.39 419.021C1495.71 417.271 1480.62 416.261 1464.77 419.085C1456.26 418.945 1447.02 421.878 1439.01 428.061C1428.72 434.197 1421.11 443.515 1420.36 457.345C1412.25 487.337 1430.92 511.292 1448.8 516.393C1451.6 510.443 1453.92 504.782 1455.91 499.425C1452.68 497.611 1450.15 494.545 1449.11 490.681C1447.07 483.07 1451.6 475.245 1459.22 473.202C1459.78 473.052 1460.34 472.937 1460.9 472.857C1463.8 482.28 1473.83 514.096 1480.54 524.285C1488.44 536.297 1514.82 532.699 1523.72 530.315C1531.4 528.256 1529.19 521.061 1527.61 515.905C1527.38 515.162 1527.17 514.462 1527 513.825C1526.64 512.495 1524.91 512.963 1522.95 513.491C1520.41 514.177 1517.49 514.966 1516.71 512.054C1515.86 508.879 1519.6 505.267 1522.95 502.034C1525.04 500.018 1526.97 498.149 1527.55 496.626C1529.35 491.823 1528.86 486.127 1524.51 487.293C1522.14 487.93 1519.24 490.173 1515.75 492.872C1510.5 496.946 1503.89 502.058 1495.71 504.251C1482.2 507.872 1467.31 465.194 1467.13 464.656Z" fill="#191847"/>
<path fill-rule="evenodd" clip-rule="evenodd" d="M1479.13 795.975L1596.03 1091.36L1674.43 1341.09H1705.38L1585.53 795.975L1479.13 795.975Z" fill="#997659"/>
<path fill-rule="evenodd" clip-rule="evenodd" d="M1455.6 795.975C1454.35 899.776 1436.2 1039.53 1433.3 1046C1430.4 1052.47 1233.06 1210.56 1233.06 1210.56L1254.38 1233.35C1254.38 1233.35 1487.22 1097.8 1498 1079.72C1508.77 1061.64 1543.85 895.28 1572.02 795.975H1455.6Z" fill="#B28B67"/>
<path fill-rule="evenodd" clip-rule="evenodd" d="M1235.69 1203.41C1235.39 1202.28 1234.21 1201.61 1233.1 1201.99C1228.86 1203.44 1219.2 1206.97 1215.41 1210.15C1210.47 1214.28 1202.38 1223.86 1202.38 1223.86C1207.19 1229.57 1288.73 1326.59 1288.73 1326.59C1288.73 1326.59 1305.35 1319.49 1299.16 1309.97C1292.96 1300.46 1289.02 1294.04 1289.02 1294.04L1269.82 1227.06C1269.66 1226.52 1269.09 1226.22 1268.55 1226.39L1257.16 1229.99C1257.16 1229.99 1246.72 1225.13 1242.52 1220.14C1239.34 1216.35 1236.75 1207.48 1235.69 1203.41Z" fill="#E4E4E4"/>
<path fill-rule="evenodd" clip-rule="evenodd" d="M1665.61 1325.65C1664.56 1325.15 1663.29 1325.63 1662.87 1326.72C1661.25 1330.9 1657.75 1340.55 1657.75 1345.5C1657.75 1351.93 1659.9 1364.27 1659.9 1364.27C1667.37 1364.27 1794.22 1364.27 1794.22 1364.27C1794.22 1364.27 1799.46 1346.99 1788.18 1345.61C1776.9 1344.23 1769.44 1343.12 1769.44 1343.12L1705.7 1314.76C1705.19 1314.53 1704.59 1314.77 1704.37 1315.29L1699.82 1326.32C1699.82 1326.32 1689.38 1331.18 1682.85 1331.18C1677.89 1331.18 1669.42 1327.45 1665.61 1325.65Z" fill="#E4E4E4"/>
<path fill-rule="evenodd" clip-rule="evenodd" d="M1557.73 1315.37L1704.92 1299.42L1595.83 795.975H1464L1557.73 1315.37Z" fill="#69A1AC"/>
<path fill-rule="evenodd" clip-rule="evenodd" d="M1263.5 1173.81L1360.05 1287.91C1360.05 1287.91 1512.59 1121.57 1537.92 1070.84C1563.24 1020.11 1583.44 795.975 1583.44 795.975H1435.02C1435.02 795.975 1423.98 993.157 1420.14 1002.33C1416.3 1011.51 1263.5 1173.81 1263.5 1173.81Z" fill="#89C5CC"/>
<path fill-rule="evenodd" clip-rule="evenodd" d="M1746.06 783.686L1661.57 742.027L1652.23 785.761L1731.73 803.37C1757.01 824.249 1770.53 832.427 1772.29 827.905C1773.78 824.091 1771.57 821.155 1769.55 818.45C1767.96 816.343 1766.49 814.377 1766.94 812.246C1767.98 807.379 1782.14 805.376 1795.66 804.048C1809.18 802.72 1804.25 797.481 1800.51 795.122C1785.47 789.386 1767.31 785.574 1746.06 783.686ZM1370.76 949.515C1375.18 934.382 1374.66 794.57 1374.66 794.57L1423.7 786.12C1423.7 786.12 1404.11 940.434 1402.07 950.024C1399.42 962.482 1410.38 977.971 1417.81 988.473C1418.96 990.098 1420.03 991.604 1420.95 992.96C1414.03 997.641 1409.7 994.221 1405.15 990.615C1400 986.542 1394.55 982.233 1384.72 989.092C1380.93 991.741 1377.42 994.702 1373.98 997.595C1362.13 1007.59 1351.24 1016.76 1332.95 1009.51C1330.05 1008.36 1326.11 1002.8 1332.2 996.832C1347.37 981.975 1368.6 956.914 1370.76 949.515Z" fill="#B28B67"/>
<path fill-rule="evenodd" clip-rule="evenodd" d="M1477.74 564.672L1497.41 557.623C1584.1 609.255 1636.99 728.488 1740.87 778.273L1723.52 809.663C1560.02 818.097 1493.54 673.007 1477.74 564.672Z" fill="#E87613"/>
<path fill-rule="evenodd" clip-rule="evenodd" d="M1434.2 834.728C1434.2 834.728 1556.18 813.219 1613.65 803.086C1621.85 801.64 1618.22 790.09 1615.98 784.334C1590.16 717.9 1523.67 653.103 1506.39 555.102L1453.2 556.125C1422.51 632.422 1422.63 719.676 1434.2 834.728Z" fill="#DDE3E9"/>
<path fill-rule="evenodd" clip-rule="evenodd" d="M1422.69 887.461C1418.03 908.222 1413.1 926.491 1407.93 940.767L1369.45 947.553C1341.74 814.616 1374.29 702.827 1405.77 633.331C1396.24 634.32 1387.04 631.884 1379.96 623.15C1355.03 592.403 1358.56 572.432 1377.69 562.699C1388.21 557.347 1399.07 557.818 1412.08 558.382C1422.72 558.844 1434.79 559.368 1449.29 556.814C1449.29 556.814 1449.3 556.813 1449.3 556.812C1450.71 556.564 1452 556.433 1453.19 556.408L1470.54 554.358C1470.54 554.358 1581.89 778.035 1564.53 862.451L1422.69 887.461Z" fill="#FF9B21"/>
<path fill-rule="evenodd" clip-rule="evenodd" d="M1422.69 887.461C1428.8 860.22 1434.43 828.69 1439.47 796.262C1449.3 829.26 1461.74 861.951 1475.7 878.113L1422.69 887.461Z" fill="black" fill-opacity="0.1"/>
</svg>
